<?xml version="1.0" standalone="no"?>
<!DOCTYPE svg PUBLIC "-//W3C//DTD SVG 20010904//EN"
 "http://www.w3.org/TR/2001/REC-SVG-20010904/DTD/svg10.dtd">
<svg version="1.0" xmlns="http://www.w3.org/2000/svg"
 width="261.000000pt" height="261.000000pt" viewBox="0 0 261.000000 261.000000"
 preserveAspectRatio="xMidYMid meet">
<metadata>
Created by potrace 1.14, written by Peter Selinger 2001-2017
</metadata>
<g transform="translate(0.000000,261.000000) scale(0.100000,-0.100000)"
fill="#000000" stroke="none">
<path d="M2281 1608 c-75 -60 -143 -114 -151 -121 -8 -7 -51 -41 -95 -75 -44
-35 -89 -71 -100 -80 -11 -10 -40 -33 -65 -52 -46 -36 -69 -54 -100 -80 -9 -8
-117 -94 -239 -190 l-221 -175 2 -85 3 -85 550 0 550 -1 2 -124 c1 -69 2 -144
2 -167 l1 -43 89 0 88 0 4 212 c3 117 2 429 -1 693 l-5 480 -89 0 -89 1 -136
-108z m137 -443 c0 -236 -3 -325 -12 -326 -43 -5 -805 -3 -804 2 3 8 808 649
814 649 1 0 2 -146 2 -325z"/>
<path d="M10 1452 c-7 -3 -10 -199 -10 -563 l0 -560 355 2 c374 1 396 4 492
50 62 30 130 110 149 175 24 82 20 174 -9 238 -28 61 -87 130 -129 152 l-29
15 39 44 c109 124 75 332 -67 405 -21 10 -49 21 -62 24 -13 2 -37 7 -52 11
-28 7 -657 13 -677 7z m652 -172 c53 -15 88 -61 88 -115 0 -77 -28 -114 -100
-130 -19 -5 -158 -9 -308 -9 l-272 -1 0 133 0 132 278 0 c158 0 293 -5 314
-10z m50 -430 c50 -14 94 -53 108 -96 29 -88 0 -189 -67 -234 l-38 -25 -322
-1 -323 -2 0 184 0 184 303 0 c177 0 317 -4 339 -10z"/>
</g>
</svg>
